HIERARCHY
ROOT Root
{
  OFFSET 0.0 0.0 0.0
  CHANNELS 6 Xposition Yposition Zposition Zrotation Yrotation Xrotation
  JOINT Hips
  {
    OFFSET 0.0 100.0 0.0
    CHANNELS 6 Xposition Yposition Zposition Zrotation Yrotation Xrotation
    JOINT Spine1
    {
      OFFSET 5.003913 -0.037094 -0.013727
      CHANNELS 3 Zrotation Yrotation Xrotation
      JOINT Spine2
      {
        OFFSET 7.125363 -1e-06 0.0
        CHANNELS 3 Zrotation Yrotation Xrotation
        JOINT Chest
        {
          OFFSET 7.594027 1e-06 0.0
          CHANNELS 3 Zrotation Yrotation Xrotation
          JOINT Neck1
          {
            OFFSET 26.313086 -0.460272 -0.181672
            CHANNELS 3 Zrotation Yrotation Xrotation
            JOINT Neck2
            {
              OFFSET 8.045911 0.0 0.0
              CHANNELS 3 Zrotation Yrotation Xrotation
              JOINT Head
              {
                OFFSET 6.432774 0.0 0.0
                CHANNELS 3 Zrotation Yrotation Xrotation
                JOINT HeadEnd
                {
                  OFFSET 16.169773 0.06451 0.00362
                  CHANNELS 3 Zrotation Yrotation Xrotation
                }
                JOINT Jaw
                {
                  OFFSET 0.108741 3.12938 0.002639
                  CHANNELS 3 Zrotation Yrotation Xrotation
                }
                JOINT LeftEye
                {
                  OFFSET 4.45173 8.166359 3.206392
                  CHANNELS 3 Zrotation Yrotation Xrotation
                }
                JOINT RightEye
                {
                  OFFSET 4.436895 8.135758 -3.222429
                  CHANNELS 3 Zrotation Yrotation Xrotation
                }
              }
            }
          }
          JOINT LeftShoulder
          {
            OFFSET 23.218927 5.195579 1.621656
            CHANNELS 3 Zrotation Yrotation Xrotation
            JOINT LeftArm
            {
              OFFSET 15.902118 2e-06 -2e-06
              CHANNELS 3 Zrotation Yrotation Xrotation
              JOINT LeftForeArm
              {
                OFFSET 28.739307 0.0 -1e-06
                CHANNELS 3 Zrotation Yrotation Xrotation
                JOINT LeftHand
                {
                  OFFSET 27.093981 -4e-06 0.0
                  CHANNELS 3 Zrotation Yrotation Xrotation
                  JOINT LeftHandThumb1
                  {
                    OFFSET 2.276781 3.380274 0.83384
                    CHANNELS 3 Zrotation Yrotation Xrotation
                    JOINT LeftHandThumb2
                    {
                      OFFSET 4.705309 -1e-06 -1e-06
                      CHANNELS 3 Zrotation Yrotation Xrotation
                      JOINT LeftHandThumb3
                      {
                        OFFSET 2.798515 0.0 3e-06
                        CHANNELS 3 Zrotation Yrotation Xrotation
                        JOINT LeftHandThumbEnd
                        {
                          OFFSET 3.180793 4e-06 -4e-06
                          CHANNELS 3 Zrotation Yrotation Xrotation
                        }
                      }
                    }
                  }
                  JOINT LeftHandIndex1
                  {
                    OFFSET 3.247786 2.352677 0.137192
                    CHANNELS 3 Zrotation Yrotation Xrotation
                    JOINT LeftHandIndex2
                    {
                      OFFSET 6.367095 1e-06 0.0
                      CHANNELS 3 Zrotation Yrotation Xrotation
                      JOINT LeftHandIndex3
                      {
                        OFFSET 3.662364 0.0 0.0
                        CHANNELS 3 Zrotation Yrotation Xrotation
                        JOINT LeftHandIndex4
                        {
                          OFFSET 2.329242 4e-06 -4e-06
                          CHANNELS 3 Zrotation Yrotation Xrotation
                          JOINT LeftHandIndexEnd
                          {
                            OFFSET 2.767823 1e-06 0.0
                            CHANNELS 3 Zrotation Yrotation Xrotation
                          }
                        }
                      }
                    }
                  }
                  JOINT LeftHandMiddle1
                  {
                    OFFSET 3.163612 0.945023 -0.406112
                    CHANNELS 3 Zrotation Yrotation Xrotation
                    JOINT LeftHandMiddle2
                    {
                      OFFSET 6.276789 3e-06 0.0
                      CHANNELS 3 Zrotation Yrotation Xrotation
                      JOINT LeftHandMiddle3
                      {
                        OFFSET 4.35652 -1e-06 4e-06
                        CHANNELS 3 Zrotation Yrotation Xrotation
                        JOINT LeftHandMiddle4
                        {
                          OFFSET 2.996877 0.0 8e-06
                          CHANNELS 3 Zrotation Yrotation Xrotation
                          JOINT LeftHandMiddleEnd
                          {
                            OFFSET 2.323256 3e-06 -4e-06
                            CHANNELS 3 Zrotation Yrotation Xrotation
                          }
                        }
                      }
                    }
                  }
                  JOINT LeftHandRing1
                  {
                    OFFSET 2.882606 -0.309162 0.107445
                    CHANNELS 3 Zrotation Yrotation Xrotation
                    JOINT LeftHandRing2
                    {
                      OFFSET 6.033198 0.0 4e-06
                      CHANNELS 3 Zrotation Yrotation Xrotation
                      JOINT LeftHandRing3
                      {
                        OFFSET 4.350578 3e-06 0.0
                        CHANNELS 3 Zrotation Yrotation Xrotation
                        JOINT LeftHandRing4
                        {
                          OFFSET 2.651321 2e-06 -7e-06
                          CHANNELS 3 Zrotation Yrotation Xrotation
                          JOINT LeftHandRingEnd
                          {
                            OFFSET 1.937663 1e-06 -4e-06
                            CHANNELS 3 Zrotation Yrotation Xrotation
                          }
                        }
                      }
                    }
                  }
                  JOINT LeftHandPinky1
                  {
                    OFFSET 2.865315 -1.525436 0.575687
                    CHANNELS 3 Zrotation Yrotation Xrotation
                    JOINT LeftHandPinky2
                    {
                      OFFSET 5.54936 1e-06 -8e-06
                      CHANNELS 3 Zrotation Yrotation Xrotation
                      JOINT LeftHandPinky3
                      {
                        OFFSET 3.070974 0.0 -4e-06
                        CHANNELS 3 Zrotation Yrotation Xrotation
                        JOINT LeftHandPinky4
                        {
                          OFFSET 1.549672 1e-06 0.0
                          CHANNELS 3 Zrotation Yrotation Xrotation
                          JOINT LeftHandPinkyEnd
                          {
                            OFFSET 1.952123 0.0 0.0
                            CHANNELS 3 Zrotation Yrotation Xrotation
                          }
                        }
                      }
                    }
                  }
                }
              }
            }
          }
          JOINT RightShoulder
          {
            OFFSET 23.161716 5.296122 -1.380114
            CHANNELS 3 Zrotation Yrotation Xrotation
            JOINT RightArm
            {
              OFFSET -16.027195 -2e-06 1.1e-05
              CHANNELS 3 Zrotation Yrotation Xrotation
              JOINT RightForeArm
              {
                OFFSET -28.736639 4e-06 2e-06
                CHANNELS 3 Zrotation Yrotation Xrotation
                JOINT RightHand
                {
                  OFFSET -27.133619 6e-06 0.0
                  CHANNELS 3 Zrotation Yrotation Xrotation
                  JOINT RightHandThumb1
                  {
                    OFFSET -2.274328 -3.351035 -0.83067
                    CHANNELS 3 Zrotation Yrotation Xrotation
                    JOINT RightHandThumb2
                    {
                      OFFSET -4.703594 -3e-06 2e-06
                      CHANNELS 3 Zrotation Yrotation Xrotation
                      JOINT RightHandThumb3
                      {
                        OFFSET -2.794935 -4e-06 -3e-06
                        CHANNELS 3 Zrotation Yrotation Xrotation
                        JOINT RightHandThumbEnd
                        {
                          OFFSET -3.183852 4e-06 1e-06
                          CHANNELS 3 Zrotation Yrotation Xrotation
                        }
                      }
                    }
                  }
                  JOINT RightHandIndex1
                  {
                    OFFSET -3.253496 -2.33755 -0.127667
                    CHANNELS 3 Zrotation Yrotation Xrotation
                    JOINT RightHandIndex2
                    {
                      OFFSET -6.344434 0.0 0.0
                      CHANNELS 3 Zrotation Yrotation Xrotation
                      JOINT RightHandIndex3
                      {
                        OFFSET -3.654871 0.0 -8e-06
                        CHANNELS 3 Zrotation Yrotation Xrotation
                        JOINT RightHandIndex4
                        {
                          OFFSET -2.327586 -1e-06 0.0
                          CHANNELS 3 Zrotation Yrotation Xrotation
                          JOINT RightHandIndexEnd
                          {
                            OFFSET -2.770001 3e-06 8e-06
                            CHANNELS 3 Zrotation Yrotation Xrotation
                          }
                        }
                      }
                    }
                  }
                  JOINT RightHandMiddle1
                  {
                    OFFSET -3.168223 -0.944764 0.411762
                    CHANNELS 3 Zrotation Yrotation Xrotation
                    JOINT RightHandMiddle2
                    {
                      OFFSET -6.266691 -1e-06 -4e-06
                      CHANNELS 3 Zrotation Yrotation Xrotation
                      JOINT RightHandMiddle3
                      {
                        OFFSET -4.348901 0.0 0.0
                        CHANNELS 3 Zrotation Yrotation Xrotation
                        JOINT RightHandMiddle4
                        {
                          OFFSET -3.00024 2e-06 -4e-06
                          CHANNELS 3 Zrotation Yrotation Xrotation
                          JOINT RightHandMiddleEnd
                          {
                            OFFSET -2.321477 -4e-06 -4e-06
                            CHANNELS 3 Zrotation Yrotation Xrotation
                          }
                        }
                      }
                    }
                  }
                  JOINT RightHandRing1
                  {
                    OFFSET -2.885654 0.293261 -0.119232
                    CHANNELS 3 Zrotation Yrotation Xrotation
                    JOINT RightHandRing2
                    {
                      OFFSET -6.032835 -1e-06 -4e-06
                      CHANNELS 3 Zrotation Yrotation Xrotation
                      JOINT RightHandRing3
                      {
                        OFFSET -4.33881 0.0 -4e-06
                        CHANNELS 3 Zrotation Yrotation Xrotation
                        JOINT RightHandRing4
                        {
                          OFFSET -2.654903 -4e-06 -4e-06
                          CHANNELS 3 Zrotation Yrotation Xrotation
                          JOINT RightHandRingEnd
                          {
                            OFFSET -1.935122 0.0 4e-06
                            CHANNELS 3 Zrotation Yrotation Xrotation
                          }
                        }
                      }
                    }
                  }
                  JOINT RightHandPinky1
                  {
                    OFFSET -2.866241 1.503904 -0.60527
                    CHANNELS 3 Zrotation Yrotation Xrotation
                    JOINT RightHandPinky2
                    {
                      OFFSET -5.553177 -2e-06 0.0
                      CHANNELS 3 Zrotation Yrotation Xrotation
                      JOINT RightHandPinky3
                      {
                        OFFSET -3.062664 -1e-06 -4e-06
                        CHANNELS 3 Zrotation Yrotation Xrotation
                        JOINT RightHandPinky4
                        {
                          OFFSET -1.546529 2e-06 4e-06
                          CHANNELS 3 Zrotation Yrotation Xrotation
                          JOINT RightHandPinkyEnd
                          {
                            OFFSET -1.952341 0.0 -4e-06
                            CHANNELS 3 Zrotation Yrotation Xrotation
                          }
                        }
                      }
                    }
                  }
                }
              }
            }
          }
        }
      }
    }
    JOINT LeftLeg
    {
      OFFSET -8.443107 2.567604 10.043214
      CHANNELS 3 Zrotation Yrotation Xrotation
      JOINT LeftShin
      {
        OFFSET 43.229198 1e-06 -1e-06
        CHANNELS 3 Zrotation Yrotation Xrotation
        JOINT LeftFoot
        {
          OFFSET 42.298611 1e-06 1e-06
          CHANNELS 3 Zrotation Yrotation Xrotation
          JOINT LeftToeBase
          {
            OFFSET 14.165858 1e-06 0.0
            CHANNELS 3 Zrotation Yrotation Xrotation
            JOINT LeftToeEnd
            {
              OFFSET 6.7141 -0.234461 0.0
              CHANNELS 3 Zrotation Yrotation Xrotation
            }
          }
        }
      }
    }
    JOINT RightLeg
    {
      OFFSET -8.303923 2.592729 -10.047278
      CHANNELS 3 Zrotation Yrotation Xrotation
      JOINT RightShin
      {
        OFFSET -43.369682 0.0 1e-06
        CHANNELS 3 Zrotation Yrotation Xrotation
        JOINT RightFoot
        {
          OFFSET -42.260784 4e-06 2e-06
          CHANNELS 3 Zrotation Yrotation Xrotation
          JOINT RightToeBase
          {
            OFFSET -14.222245 -2e-06 -1e-06
            CHANNELS 3 Zrotation Yrotation Xrotation
            JOINT RightToeEnd
            {
              OFFSET -6.660062 0.232574 -2e-06
              CHANNELS 3 Zrotation Yrotation Xrotation
            }
          }
        }
      }
    }
  }
}
MOTION
Frames: 5
Frame Time: 0.03333333333333333
0.0 0.0 0.0 0.0 -0.0 0.0 -0.364332 99.522285 6.004662 91.28849 -0.594493 90.320694 5.582121 2.037464 -0.124085 -8.907681 -0.035526 -0.795941 17.52269 2.915528 -1.871744 12.268574 5.148306 2.624119 -2.366446 -0.903958 -0.988841 -35.211155 -0.999923 -2.031432 5e-06 0.0 -0.0 0.043573 0.016368 0.106509 0.033061 0.015881 0.076502 -0.020094 0.019857 0.140608 -102.633217 -78.444153 117.94574 44.803066 -51.902962 5.431339 42.248779 0.243574 -0.421161 5.696473 13.67321 15.305153 17.636633 -26.322733 52.411205 -19.466661 -14.395598 29.410395 -1e-06 -8.774822 -2e-06 15.630787 -18.116709 6.292673 -0.609777 -1.795656 -3.889331 -4.807089 -11.046807 -2.937852 5e-06 -20.976015 1e-06 -5.019969 -25.033556 -4.031881 6e-06 1e-06 1e-06 -10.634535 -5.686973 -3.565589 10.573275 -17.922947 -3.113902 2e-06 -13.821209 3e-06 -0.501776 -31.181505 -4.027016 -11.200126 -59.026627 7.040911 -13.982714 -7.150196 -2.875045 13.772729 -8.401491 -3.218241 0.347735 -34.211544 0.771656 -0.96303 -17.733372 2.621021 0.0 1e-06 -0.0 -17.346418 -20.095215 -4.201784 21.757559 -1.638376 3.866428 3e-06 -6.338821 0.0 -1.697588 -22.591743 -6.194007 1e-06 -6e-06 -3e-06 45.647774 -79.793251 150.734299 20.547934 -53.132061 4.494178 70.778702 0.04261 0.296335 5.667505 2.652816 29.563057 22.182108 -20.375895 49.933319 -16.701813 -16.743528 28.476532 -2e-06 -12.690604 0.0 16.054186 -18.114311 2.575405 -0.105918 -1.513858 -4.275882 -5.039042 -5.612875 -2.953555 1e-06 -11.020523 -1e-06 -6.1113 -15.895338 -3.840471 0.0 1e-06 -3e-06 -10.283371 -5.680289 -4.341838 11.028296 -11.302404 -2.372636 -1.384271 -14.238584 -6.320121 -0.62544 -26.924191 -3.827604 -4.8705 -49.729393 -3.511137 -13.708525 -7.363478 -3.720938 18.141151 -14.052739 -3.242676 2e-06 -18.787271 -2e-06 -0.429709 -8.456044 2.555501 2e-06 -0.0 2e-06 -15.923538 -20.094484 -5.473584 30.41921 -7.190822 1.735925 2e-06 -8.162925 -2e-06 -1.8619 -22.861473 -6.167946 -2e-06 -2e-06 -0.0 174.692444 -8.216354 -12.469453 29.441763 0.011737 0.303334 -78.206909 8.278835 -6.540042 -7.653319 1.534566 2.102473 -1.000001 -0.0 -0.0 -14.318305 -5.156624 -12.589733 41.436234 0.103078 -0.050131 -76.201874 1.623335 -0.893951 -7.22193 0.827701 1.714628 -0.999999 -0.0 0.0 
0.0 0.0 0.0 0.0 -0.0 0.0 -0.351061 99.448685 6.315309 91.241852 -0.566727 90.471725 5.512083 2.032726 -0.162511 -8.961879 -0.013495 -0.78578 17.416706 2.84835 -1.951836 12.223841 5.315901 2.667179 -2.370374 -0.953757 -1.214464 -34.988205 -1.000591 -2.275758 6e-06 0.0 -0.0 0.024973 0.007616 0.112119 0.01073 0.010392 0.079538 -0.035857 0.007435 0.147102 -102.364334 -78.529922 117.555656 44.481144 -51.891655 5.606207 41.96043 0.175447 -0.408288 5.824359 13.32077 15.177039 17.636633 -26.322731 52.41119 -19.466658 -14.395597 29.410381 0.0 -8.774821 -2e-06 15.630739 -18.065918 6.228384 -0.609776 -1.795653 -3.889328 -4.807088 -11.046811 -2.937849 4e-06 -20.976015 2e-06 -5.01997 -25.033556 -4.031881 6e-06 0.0 1e-06 -10.634535 -5.686971 -3.565587 10.573272 -17.922951 -3.113902 1e-06 -13.821211 4e-06 -0.501778 -31.181505 -4.027014 -11.057102 -59.061123 6.999427 -13.982714 -7.150198 -2.875042 13.772729 -8.401493 -3.218238 0.347735 -34.211552 0.771654 -0.963031 -17.73337 2.621022 0.0 1e-06 -0.0 -17.34642 -20.095217 -4.201781 21.757557 -1.638375 3.866429 2e-06 -6.338823 1e-06 -1.697589 -22.591745 -6.194006 1e-06 -4e-06 -3e-06 45.329632 -79.491348 151.203903 19.781794 -52.808075 4.796328 69.866905 -0.070055 0.29359 5.603738 2.56512 28.45598 22.182108 -20.375896 49.933327 -16.701811 -16.743528 28.476532 -3e-06 -12.690601 2e-06 16.01585 -18.163345 2.652126 -0.105919 -1.513857 -4.275885 -5.039041 -5.612872 -2.953555 4e-06 -11.02052 -1e-06 -6.111293 -15.89533 -3.840473 -0.0 1e-06 -2e-06 -10.283366 -5.680285 -4.341839 11.028292 -11.302402 -2.372633 -1.384267 -14.238581 -6.320124 -0.625436 -26.924187 -3.827602 -4.835849 -49.799862 -3.454468 -13.708523 -7.363475 -3.720938 18.14115 -14.052736 -3.242675 6e-06 -18.787266 -1e-06 -0.429712 -8.456041 2.555503 4e-06 -1e-06 2e-06 -15.923532 -20.094481 -5.473587 30.41921 -7.190824 1.735926 2e-06 -8.162922 -1e-06 -1.861901 -22.861467 -6.167941 -1e-06 -3e-06 -0.0 175.050034 -8.268285 -12.574084 29.150824 0.014335 0.336625 -78.685196 8.454251 -6.653806 -7.409225 1.534296 2.113249 -0.999999 0.0 0.0 -14.063627 -5.167598 -12.738045 41.508896 0.115037 -0.082377 -76.518959 1.678722 -1.084397 -7.259603 0.79628 1.704994 -1.000001 0.0 0.0 
0.0 0.0 0.0 0.0 -0.0 0.0 -0.295996 99.352089 6.523717 91.21917 -0.606127 90.649055 5.42024 1.974114 -0.190236 -9.00321 -0.011842 -0.806143 17.317381 2.786306 -2.024382 12.164311 5.378017 2.692676 -2.411357 -0.972557 -1.501925 -34.697803 -1.082731 -2.489521 6e-06 0.0 0.0 0.012857 0.000715 0.093001 -0.011755 0.002764 0.061514 -0.053484 0.000636 0.125437 -102.532394 -78.595779 117.598167 44.031124 -51.770218 6.000643 41.902164 0.161959 -0.361909 5.851372 12.94882 14.868615 17.636625 -26.322731 52.41119 -19.466665 -14.395597 29.410389 -0.0 -8.774822 -2e-06 15.660352 -18.079187 6.181673 -0.609776 -1.795652 -3.889328 -4.807088 -11.046809 -2.937848 5e-06 -20.976019 -0.0 -5.01997 -25.03356 -4.03188 6e-06 0.0 0.0 -10.634533 -5.686968 -3.565588 10.573275 -17.922951 -3.113903 3e-06 -13.821211 2e-06 -0.501775 -31.181505 -4.027016 -11.098062 -59.092121 7.016606 -13.982712 -7.150196 -2.875041 13.77273 -8.401494 -3.218246 0.347734 -34.211555 0.771654 -0.963029 -17.73337 2.621021 0.0 2e-06 -0.0 -17.346415 -20.095217 -4.201782 21.757557 -1.638376 3.866429 3e-06 -6.338823 1e-06 -1.697588 -22.591747 -6.194006 -0.0 -4e-06 -2e-06 44.707676 -79.166618 151.926865 18.693939 -52.486977 5.312245 69.084267 -0.112308 0.299412 5.460318 2.7208 27.235224 22.182116 -20.375895 49.933327 -16.701815 -16.743526 28.476534 -2e-06 -12.6906 -2e-06 15.947287 -18.135653 2.711076 -0.105918 -1.513855 -4.275883 -5.039042 -5.612872 -2.953553 1e-06 -11.020523 -1e-06 -6.111297 -15.895332 -3.840472 1e-06 1e-06 -1e-06 -10.283372 -5.680288 -4.341836 11.028293 -11.302402 -2.372633 -1.384267 -14.238581 -6.32012 -0.625438 -26.924183 -3.827604 -4.813169 -49.839481 -3.422594 -13.708525 -7.363476 -3.720939 18.14115 -14.052739 -3.242675 6e-06 -18.78727 -3e-06 -0.429715 -8.456043 2.555506 2e-06 0.0 1e-06 -15.923536 -20.094484 -5.473585 30.41921 -7.190823 1.735925 1e-06 -8.162921 -1e-06 -1.861904 -22.861473 -6.167944 -1e-06 -3e-06 -0.0 175.214401 -8.279629 -12.703479 28.951696 0.007088 0.360019 -79.25264 8.484897 -6.642063 -7.136285 1.519938 2.123356 -0.999999 0.0 -0.0 -14.033012 -5.264518 -12.910768 41.760464 0.120717 -0.100129 -76.815773 1.732613 -1.261007 -7.344607 0.787002 1.700443 -1.000002 1e-06 0.0 
0.0 0.0 0.0 0.0 -0.0 0.0 -0.224572 99.2369 6.670579 91.1679 -0.702793 90.823662 5.341533 1.887047 -0.209929 -9.045424 -0.015512 -0.821431 17.225639 2.724136 -2.085393 12.092766 5.337499 2.687369 -2.438548 -0.939573 -1.72261 -34.471291 -1.189736 -2.661905 5e-06 0.0 0.0 0.00826 -0.001779 0.072757 -0.028009 -0.000861 0.043144 -0.065114 -0.001489 0.102672 -103.130455 -78.65377 118.063301 43.560562 -51.556728 6.448997 41.971771 0.13224 -0.336711 5.878834 12.808041 14.726655 17.636629 -26.322731 52.411201 -19.466665 -14.395597 29.410395 -1e-06 -8.774822 -2e-06 15.666363 -18.097311 6.16929 -0.609776 -1.795653 -3.889328 -4.80709 -11.046814 -2.937851 4e-06 -20.976021 0.0 -5.019969 -25.033564 -4.031886 6e-06 2e-06 1e-06 -10.634535 -5.686972 -3.565589 10.573272 -17.922951 -3.113903 2e-06 -13.821211 1e-06 -0.501773 -31.181505 -4.02702 -11.152938 -59.121803 7.041801 -13.982713 -7.150198 -2.875045 13.77273 -8.401492 -3.218244 0.347736 -34.211555 0.771651 -0.963028 -17.733372 2.62102 -0.0 3e-06 -0.0 -17.346422 -20.095221 -4.201784 21.757561 -1.638376 3.866429 2e-06 -6.338825 1e-06 -1.697589 -22.591755 -6.19401 1e-06 -5e-06 -4e-06 44.206699 -78.854218 152.510345 17.46393 -52.29388 5.854553 68.362633 -0.130486 0.310246 5.270941 3.130359 26.25198 22.18211 -20.375885 49.933315 -16.701813 -16.74353 28.47653 -3e-06 -12.6906 -0.0 15.869061 -18.074919 2.757229 -0.10592 -1.513856 -4.275882 -5.039042 -5.612873 -2.953555 1e-06 -11.020523 -2e-06 -6.111294 -15.89533 -3.840472 1e-06 -0.0 -1e-06 -10.283372 -5.68029 -4.341839 11.028291 -11.302406 -2.372632 -1.384267 -14.238581 -6.320124 -0.625438 -26.924191 -3.827602 -4.789342 -49.829563 -3.395624 -13.708526 -7.363479 -3.720938 18.141151 -14.052739 -3.242676 4e-06 -18.78727 -2e-06 -0.429713 -8.456043 2.555501 2e-06 0.0 0.0 -15.923536 -20.094484 -5.473583 30.419214 -7.190824 1.735925 3e-06 -8.162925 -4e-06 -1.861902 -22.861471 -6.167947 0.0 -3e-06 -2e-06 175.213348 -8.336508 -12.880179 28.88471 -0.006109 0.373447 -79.896477 8.486543 -6.642208 -6.921435 1.504547 2.126303 -0.999999 0.0 0.0 -14.119023 -5.329229 -13.048874 42.024483 0.122379 -0.122725 -77.177208 1.728823 -1.395673 -7.345503 0.782879 1.699352 -1.0 -0.0 0.0 
0.0 0.0 0.0 0.0 -0.0 0.0 -0.126584 99.147545 6.786434 91.059769 -0.839331 90.991829 5.277126 1.803498 -0.220186 -9.073946 -0.020554 -0.832917 17.147512 2.658245 -2.167814 11.988487 5.254133 2.687558 -2.452191 -0.903764 -1.83904 -34.279564 -1.277883 -2.787949 6e-06 -0.0 -0.0 0.006091 -0.000423 0.0654 -0.032139 0.000922 0.038207 -0.067794 -0.001002 0.092744 -103.823822 -78.690292 118.676918 43.234314 -51.280563 6.783686 42.096596 0.095839 -0.309206 5.932035 12.842893 14.745576 17.636631 -26.322741 52.411209 -19.466665 -14.3956 29.410395 0.0 -8.774823 -3e-06 15.630827 -18.108528 6.193302 -0.609778 -1.795653 -3.889329 -4.807089 -11.046813 -2.93785 5e-06 -20.976019 -1e-06 -5.01997 -25.03356 -4.031883 5e-06 1e-06 1e-06 -10.634535 -5.686971 -3.565587 10.573276 -17.922955 -3.113904 3e-06 -13.821213 3e-06 -0.501777 -31.181511 -4.027016 -11.182594 -59.131325 7.077744 -13.982716 -7.150196 -2.875041 13.772731 -8.401493 -3.218243 0.347734 -34.211555 0.771655 -0.963031 -17.733372 2.621022 0.0 2e-06 -0.0 -17.346422 -20.095219 -4.201784 21.757561 -1.638375 3.866429 3e-06 -6.338825 0.0 -1.697588 -22.591751 -6.19401 0.0 -4e-06 -4e-06 43.776379 -78.581146 153.000885 16.191948 -52.284592 6.327794 67.618408 -0.156238 0.325874 5.132786 3.754661 25.443546 22.182116 -20.375891 49.933319 -16.701813 -16.743528 28.476532 -3e-06 -12.690604 -2e-06 15.839711 -18.029243 2.788886 -0.10592 -1.513856 -4.275883 -5.039042 -5.612874 -2.953554 3e-06 -11.020524 -2e-06 -6.111296 -15.89533 -3.840472 1e-06 -0.0 0.0 -10.283369 -5.68029 -4.341841 11.028296 -11.302404 -2.372635 -1.384267 -14.23858 -6.320123 -0.625443 -26.924187 -3.827601 -4.744858 -49.843864 -3.388011 -13.708524 -7.363479 -3.720939 18.141148 -14.052739 -3.242677 7e-06 -18.78727 -3e-06 -0.429711 -8.456043 2.555501 1e-06 -1e-06 0.0 -15.923538 -20.094486 -5.473587 30.419218 -7.190826 1.735926 3e-06 -8.162927 -1e-06 -1.861901 -22.861473 -6.167942 -1e-06 -3e-06 -2e-06 175.102112 -8.452551 -13.07625 28.916197 -0.02279 0.386426 -80.438744 8.470384 -6.604039 -6.755378 1.491267 2.124742 -0.999999 -0.0 0.0 -14.292839 -5.335146 -13.145703 42.322994 0.116474 -0.138886 -77.319931 1.673333 -1.505673 -7.353088 0.782799 1.70006 -1.000003 -0.0 0.0 
